name ./resultDataOpenSim/trcMotMarkerGrf/sub10/grf-02-07.mot
datacolumns 19
datarows 30
range 1.02800000 1.14400000
endheader

                time	     ground_force_vx	     ground_force_vy	     ground_force_vz	     ground_force_px	     ground_force_py	     ground_force_pz	   l_ground_force_vx	   l_ground_force_vy	   l_ground_force_vz	   l_ground_force_px	   l_ground_force_py	   l_ground_force_pz	     ground_torque_x	     ground_torque_y	     ground_torque_z	   l_ground_torque_x	   l_ground_torque_y	   l_ground_torque_z	
          1.02800000	          0.00000000	          0.00000000	          0.00000000	          0.00000000	          0.00000000	          0.00000000	         24.13981215	        512.74086921	         22.94523490	         -0.00358459	         -0.02500000	         -0.09029993	          0.00000000	          0.00000000	          0.00000000	          0.00000000	         -4.29326755	          0.00000000	
          1.03200000	          0.00000000	          0.00000000	          0.00000000	          0.00000000	          0.00000000	          0.00000000	         26.76458352	        522.15031868	         23.88893715	         -0.00291091	         -0.02500000	         -0.09035627	          0.00000000	          0.00000000	          0.00000000	          0.00000000	         -4.41759355	          0.00000000	
          1.03600000	          0.00000000	          0.00000000	          0.00000000	          0.00000000	          0.00000000	          0.00000000	         29.33419147	        531.93392034	         25.06989269	         -0.00211108	         -0.02500000	         -0.09037660	          0.00000000	          0.00000000	          0.00000000	          0.00000000	         -4.50913342	          0.00000000	
          1.04000000	          0.00000000	          0.00000000	          0.00000000	          0.00000000	          0.00000000	          0.00000000	         31.87007581	        542.16542266	         26.50439083	         -0.00121268	         -0.02500000	         -0.09035601	          0.00000000	          0.00000000	          0.00000000	          0.00000000	         -4.56934515	          0.00000000	
          1.04400000	          0.00000000	          0.00000000	          0.00000000	          0.00000000	          0.00000000	          0.00000000	         34.38266919	        552.98274732	         28.18534693	         -0.00027208	         -0.02500000	         -0.09027856	          0.00000000	          0.00000000	          0.00000000	          0.00000000	         -4.60409785	          0.00000000	
          1.04800000	          0.00000000	          0.00000000	          0.00000000	          0.00000000	          0.00000000	          0.00000000	         36.85609803	        564.55283803	         30.04732481	          0.00064752	         -0.02500000	         -0.09012374	          0.00000000	          0.00000000	          0.00000000	          0.00000000	         -4.62345029	          0.00000000	
          1.05200000	          0.00000000	          0.00000000	          0.00000000	          0.00000000	          0.00000000	          0.00000000	         39.27633844	        576.96865390	         31.96174313	          0.00151345	         -0.02500000	         -0.08986766	          0.00000000	          0.00000000	          0.00000000	          0.00000000	         -4.64035470	          0.00000000	
          1.05600000	          0.00000000	          0.00000000	          0.00000000	          0.00000000	          0.00000000	          0.00000000	         41.65886388	        590.16131201	         33.77611830	          0.00233279	         -0.02500000	         -0.08949527	          0.00000000	          0.00000000	          0.00000000	          0.00000000	         -4.66851075	          0.00000000	
          1.06000000	          0.00000000	          0.00000000	          0.00000000	          0.00000000	          0.00000000	          0.00000000	         44.04211554	        603.94573307	         35.36503174	          0.00312447	         -0.02500000	         -0.08902372	          0.00000000	          0.00000000	          0.00000000	          0.00000000	         -4.71992315	          0.00000000	
          1.06400000	          0.00000000	          0.00000000	          0.00000000	          0.00000000	          0.00000000	          0.00000000	         46.47361543	        618.16315785	         36.65384565	          0.00389899	         -0.02500000	         -0.08848655	          0.00000000	          0.00000000	          0.00000000	          0.00000000	         -4.80279306	          0.00000000	
          1.06800000	          0.00000000	          0.00000000	          0.00000000	          0.00000000	          0.00000000	          0.00000000	         49.01084244	        632.72942369	         37.62012727	          0.00466318	         -0.02500000	         -0.08790377	          0.00000000	          0.00000000	          0.00000000	          0.00000000	         -4.92028831	          0.00000000	
          1.07200000	          0.00000000	          0.00000000	          0.00000000	          0.00000000	          0.00000000	          0.00000000	         51.71648478	        647.53879449	         38.29604227	          0.00542244	         -0.02500000	         -0.08729621	          0.00000000	          0.00000000	          0.00000000	          0.00000000	         -5.07047745	          0.00000000	
          1.07600000	          0.00000000	          0.00000000	          0.00000000	          0.00000000	          0.00000000	          0.00000000	         54.64219959	        662.39842590	         38.75953673	          0.00618241	         -0.02500000	         -0.08669335	          0.00000000	          0.00000000	          0.00000000	          0.00000000	         -5.24727380	          0.00000000	
          1.08000000	          0.00000000	          0.00000000	          0.00000000	          0.00000000	          0.00000000	          0.00000000	         57.82646289	        677.10281887	         39.09309568	          0.00694995	         -0.02500000	         -0.08611678	          0.00000000	          0.00000000	          0.00000000	          0.00000000	         -5.44188418	          0.00000000	
          1.08400000	          0.00000000	          0.00000000	          0.00000000	          0.00000000	          0.00000000	          0.00000000	         61.30322720	        691.54378350	         39.34402079	          0.00770156	         -0.02500000	         -0.08558078	          0.00000000	          0.00000000	          0.00000000	          0.00000000	         -5.64427231	          0.00000000	
          1.08800000	          0.00000000	          0.00000000	          0.00000000	          0.00000000	          0.00000000	          0.00000000	         65.10021446	        705.72561246	         39.53321151	          0.00839107	         -0.02500000	         -0.08509748	          0.00000000	          0.00000000	          0.00000000	          0.00000000	         -5.84443362	          0.00000000	
          1.09200000	          0.00000000	          0.00000000	          0.00000000	          0.00000000	          0.00000000	          0.00000000	         69.24187286	        719.69785828	         39.68749460	          0.00899283	         -0.02500000	         -0.08465996	          0.00000000	          0.00000000	          0.00000000	          0.00000000	         -6.03349651	          0.00000000	
          1.09600000	          0.00000000	          0.00000000	          0.00000000	          0.00000000	          0.00000000	          0.00000000	         73.75605200	        733.49937899	         39.84232285	          0.00953790	         -0.02500000	         -0.08423779	          0.00000000	          0.00000000	          0.00000000	          0.00000000	         -6.20463186	          0.00000000	
          1.10000000	          0.00000000	          0.00000000	          0.00000000	          0.00000000	          0.00000000	          0.00000000	         78.65389613	        747.12741287	         40.01162287	          0.01009618	         -0.02500000	         -0.08379047	          0.00000000	          0.00000000	          0.00000000	          0.00000000	         -6.35357880	          0.00000000	
          1.10400000	          0.00000000	          0.00000000	          0.00000000	          0.00000000	          0.00000000	          0.00000000	         83.90046266	        760.48488433	         40.16570935	          0.01071189	         -0.02500000	         -0.08330750	          0.00000000	          0.00000000	          0.00000000	          0.00000000	         -6.47853558	          0.00000000	
          1.10800000	          0.00000000	          0.00000000	          0.00000000	          0.00000000	          0.00000000	          0.00000000	         89.41807161	        773.35740975	         40.25262372	          0.01138243	         -0.02500000	         -0.08281860	          0.00000000	          0.00000000	          0.00000000	          0.00000000	         -6.57934651	          0.00000000	
          1.11200000	          0.00000000	          0.00000000	          0.00000000	          0.00000000	          0.00000000	          0.00000000	         95.12182439	        785.48720013	         40.23883072	          0.01209838	         -0.02500000	         -0.08235670	          0.00000000	          0.00000000	          0.00000000	          0.00000000	         -6.65625587	          0.00000000	
          1.11600000	          0.00000000	          0.00000000	          0.00000000	          0.00000000	          0.00000000	          0.00000000	        100.94359111	        796.66863011	         40.12179453	          0.01285053	         -0.02500000	         -0.08193145	          0.00000000	          0.00000000	          0.00000000	          0.00000000	         -6.70877340	          0.00000000	
          1.12000000	          0.00000000	          0.00000000	          0.00000000	          0.00000000	          0.00000000	          0.00000000	        106.82246631	        806.78427589	         39.91605527	          0.01361833	         -0.02500000	         -0.08154213	          0.00000000	          0.00000000	          0.00000000	          0.00000000	         -6.73518280	          0.00000000	
          1.12400000	          0.00000000	          0.00000000	          0.00000000	          0.00000000	          0.00000000	          0.00000000	        112.70037684	        815.81240634	         39.63952756	          0.01437636	         -0.02500000	         -0.08118939	          0.00000000	          0.00000000	          0.00000000	          0.00000000	         -6.73289825	          0.00000000	
          1.12800000	          0.00000000	          0.00000000	          0.00000000	          0.00000000	          0.00000000	          0.00000000	        118.54169782	        823.82282109	         39.31102754	          0.01511847	         -0.02500000	         -0.08086018	          0.00000000	          0.00000000	          0.00000000	          0.00000000	         -6.69945374	          0.00000000	
          1.13200000	          0.00000000	          0.00000000	          0.00000000	          0.00000000	          0.00000000	          0.00000000	        124.34033956	        830.91085940	         38.94993503	          0.01585457	         -0.02500000	         -0.08053251	          0.00000000	          0.00000000	          0.00000000	          0.00000000	         -6.63366543	          0.00000000	
          1.13600000	          0.00000000	          0.00000000	          0.00000000	          0.00000000	          0.00000000	          0.00000000	        130.09668487	        837.07798825	         38.56792994	          0.01657990	         -0.02500000	         -0.08019255	          0.00000000	          0.00000000	          0.00000000	          0.00000000	         -6.53650325	          0.00000000	
          1.14000000	          0.00000000	          0.00000000	          0.00000000	          0.00000000	          0.00000000	          0.00000000	        135.79033678	        842.15891146	         38.16290559	          0.01727632	         -0.02500000	         -0.07983946	          0.00000000	          0.00000000	          0.00000000	          0.00000000	         -6.41133634	          0.00000000	
          1.14400000	          0.00000000	          0.00000000	          0.00000000	          0.00000000	          0.00000000	          0.00000000	        141.37078478	        845.84929939	         37.72229601	          0.01793773	         -0.02500000	         -0.07947142	          0.00000000	          0.00000000	          0.00000000	          0.00000000	         -6.26342284	          0.00000000	
